<svg width="89" height="89" viewBox="0 0 89 89" fill="none" xmlns="http://www.w3.org/2000/svg">
<circle cx="44.5" cy="44.5" r="44" stroke="black"/>
<path d="M65.3358 59.4056C67.0953 59.403 68.7819 58.7029 70.026 57.4588C71.2702 56.2146 71.9703 54.528 71.9729 52.7685C71.6085 43.9604 59.0571 43.9624 58.694 52.7685C58.6967 54.5288 59.3974 56.2161 60.6426 57.4604C61.8877 58.7047 63.5755 59.4042 65.3358 59.4056ZM65.3358 48.1166C66.5673 48.1187 67.7478 48.6088 68.6187 49.4797C69.4895 50.3505 69.9797 51.531 69.9818 52.7625C69.7634 58.9138 60.9022 58.9125 60.6852 52.7625C60.6873 51.5302 61.1781 50.349 62.0499 49.478C62.9218 48.6071 64.1035 48.1174 65.3358 48.1166ZM46.0238 27.6371C46.0213 25.8776 45.3213 24.1908 44.0771 22.9467C42.833 21.7025 41.1462 21.0025 39.3867 21C30.5792 21.3644 30.5819 33.9151 39.3867 34.2782C41.1469 34.2757 42.8342 33.5751 44.0785 32.3301C45.3228 31.0851 46.0224 29.3973 46.0238 27.6371ZM34.7361 27.6371C34.738 26.4055 35.2281 25.2249 36.099 24.354C36.9699 23.4832 38.1504 22.9931 39.382 22.9911C45.5346 23.2088 45.5333 32.07 39.382 32.2871C38.1498 32.2851 36.9686 31.7945 36.0976 30.9227C35.2266 30.051 34.7369 28.8694 34.7361 27.6371ZM48.749 50.409C48.8437 50.3189 48.9197 50.2109 48.9727 50.0914C49.0257 49.9718 49.0547 49.843 49.0579 49.7123C49.0611 49.5816 49.0385 49.4515 48.9914 49.3295C48.9443 49.2075 48.8737 49.096 48.7835 49.0013L36.1524 35.7271C35.4003 34.951 34.473 34.3666 33.4484 34.0229C32.4237 33.6793 31.3316 33.5864 30.2636 33.7522C29.1957 33.9179 28.183 34.3374 27.3107 34.9754C26.4384 35.6134 25.7318 36.4513 25.2503 37.4189L19.1196 50.0221C19.0041 50.2597 18.9876 50.5335 19.0739 50.7833C19.1603 51.033 19.3423 51.2383 19.5799 51.3538C19.8175 51.4694 20.0913 51.4858 20.3411 51.3995C20.5908 51.3132 20.7961 51.1312 20.9116 50.8935L27.041 38.2936C27.374 37.607 27.8684 37.0113 28.4819 36.5575C29.0954 36.1037 29.8098 35.8053 30.5638 35.6879C31.3178 35.5705 32.0891 35.6375 32.8115 35.8832C33.534 36.129 34.1862 36.5461 34.7122 37.099L47.3439 50.3732C47.5257 50.5639 47.7757 50.6747 48.0391 50.6814C48.3024 50.6881 48.5577 50.5902 48.749 50.409Z" fill="black"/>
<path d="M34.4354 44.2704C34.2488 44.4571 34.144 44.7103 34.144 44.9743C34.144 45.2382 34.2488 45.4914 34.4354 45.6781L39.919 51.1617C40.0109 51.2568 40.1207 51.3326 40.2422 51.3848C40.3636 51.437 40.4943 51.4644 40.6265 51.4656C40.7587 51.4667 40.8898 51.4416 41.0121 51.3915C41.1345 51.3414 41.2456 51.2675 41.3391 51.174C41.4326 51.0806 41.5065 50.9694 41.5566 50.8471C41.6066 50.7247 41.6318 50.5936 41.6307 50.4614C41.6295 50.3292 41.602 50.1986 41.5499 50.0771C41.4977 49.9557 41.4218 49.8458 41.3268 49.754L35.8405 44.2704C35.6539 44.0846 35.4013 43.9802 35.138 43.9802C34.8746 43.9802 34.622 44.0846 34.4354 44.2704ZM70.4451 61.3483H60.6633L53.1992 53.8869C52.8003 53.4859 52.3258 53.168 51.8032 52.9516C51.2807 52.7351 50.7204 52.6244 50.1548 52.6258H15.9956C15.7315 52.6258 15.4783 52.7307 15.2916 52.9174C15.1049 53.1041 15 53.3574 15 53.6214C15 53.8855 15.1049 54.1387 15.2916 54.3254C15.4783 54.5121 15.7315 54.617 15.9956 54.617H50.1548C50.4588 54.6163 50.76 54.6758 51.0409 54.7921C51.3218 54.9085 51.5769 55.0792 51.7915 55.2946L59.5436 63.0501C59.6361 63.1426 59.7458 63.2161 59.8667 63.2662C59.9875 63.3163 60.117 63.3421 60.2478 63.3421H70.4451C70.8727 63.3507 71.2798 63.5267 71.5792 63.8321C71.8785 64.1375 72.0462 64.5482 72.0462 64.9758C72.0462 65.4035 71.8785 65.8141 71.5792 66.1196C71.2798 66.425 70.8727 66.6009 70.4451 66.6096H58.2228L54.0567 62.4435C53.7111 62.0961 53.3 61.8207 52.8473 61.6332C52.3946 61.4456 51.9092 61.3497 51.4191 61.351H43.1028C42.8388 61.351 42.5856 61.4559 42.3989 61.6426C42.2122 61.8293 42.1073 62.0825 42.1073 62.3466C42.1073 62.6106 42.2122 62.8638 42.3989 63.0505C42.5856 63.2372 42.8388 63.3421 43.1028 63.3421H51.4191C51.6476 63.3415 51.8739 63.3862 52.085 63.4736C52.2961 63.561 52.4878 63.6893 52.649 63.8512L57.1065 68.3093C57.2942 68.4936 57.5464 68.5972 57.8094 68.598H70.4451C75.2271 68.4494 75.2424 61.5016 70.4451 61.3483Z" fill="black"/>
</svg>
