<svg width="89" height="89" viewBox="0 0 89 89" fill="none" xmlns="http://www.w3.org/2000/svg">
<circle cx="44.5" cy="44.5" r="44" stroke="black"/>
<path d="M62.4259 22.588C63.247 21.6849 63.2926 20.3621 62.5171 19.5775C61.7416 18.7838 60.4095 18.8112 59.4971 19.6414L52.207 26.1824C51.7234 26.6112 51.0847 26.8302 50.5556 26.7389L48.6578 26.4288C48.083 26.3284 47.4717 26.5382 47.0246 26.9852L46.8147 27.195C42.1524 24.1754 36.1762 24.6042 33.7583 24.7866C31.6598 24.9417 30.127 25.6077 29.2055 26.7663C28.3569 27.8337 28.2839 29.0379 28.3205 29.7038C25.4555 32.4681 25.711 35.9347 25.9482 37.2849L23.6672 39.2463C23.4847 39.3831 23.0924 39.7389 22.9647 40.3593C22.8461 40.9796 23.0194 41.6274 23.503 42.2933C23.5851 42.4028 23.6216 42.4849 23.6399 42.5305C23.1471 43.4063 22.9829 44.2639 23.1381 45.0758V45.0849C23.284 45.8148 23.5121 46.353 23.8406 46.7179C23.8862 46.7909 23.8588 47.1558 23.6033 47.6667C23.4574 47.9403 23.3844 48.2414 23.3935 48.5425C23.4026 49.0534 23.5577 50.0112 24.4428 50.7593C25.4555 51.6169 27.107 51.8814 29.3423 51.5439C29.981 51.4435 30.5558 51.6077 31.1124 52.0365C33.5668 53.9249 34.5612 59.9186 34.8441 61.9987C34.0868 62.0807 33.4573 61.8618 33.0375 61.6428C32.627 61.4148 32.1069 61.4878 31.7693 61.8162C31.4226 62.1446 31.3222 62.6646 31.5321 63.0934C32.7638 65.6843 35.0904 67.6366 38.4389 68.8955C40.5374 69.6892 42.8275 70.0906 45.1815 70.0906C46.0757 70.0906 46.9789 70.0267 47.8913 69.9081C54.4424 69.0597 58.5938 67.3081 60.5919 64.553C62.4441 61.9804 61.9058 59.1614 61.5864 57.4737C61.5408 57.2548 61.5043 57.054 61.4678 56.8625C61.3857 56.379 61.0116 56.0141 60.5281 55.9502C60.0354 55.8955 59.5701 56.16 59.3693 56.6253C59.2325 56.9537 58.7763 57.1088 58.5664 57.1636C57.6267 57.1088 56.8876 56.7712 56.3128 56.1418C55.1814 54.9011 54.6431 52.4379 54.8165 49.2176C54.8895 47.7761 54.5519 46.28 53.8128 44.7839C53.1103 43.3516 53.165 41.7642 53.1742 41.7004C53.165 40.0673 53.0281 38.553 52.791 37.1481L54.9533 35.0042C55.4004 34.5572 55.6102 33.9368 55.519 33.353L55.2088 31.5101C55.1176 30.9719 55.3457 30.3333 55.7927 29.8407L62.4259 22.588ZM52.9917 49.1172C52.8548 51.7446 53.0829 55.3116 54.9624 57.3734C55.8931 58.386 57.1157 58.9333 58.5847 58.9881H58.6668L58.7398 58.979C58.8401 58.9699 59.3784 58.8786 59.9259 58.5685C60.1814 60.0372 60.3 61.8435 59.1139 63.4857C57.4533 65.7755 53.5938 67.3355 47.6542 68.1018C44.6706 68.4941 41.7053 68.1748 39.0776 67.1895C36.9061 66.3685 35.2455 65.2464 34.1233 63.8232C34.6616 63.8688 35.2821 63.8323 35.9481 63.6316C35.9937 63.6225 36.0211 63.5951 36.0667 63.5769C36.0758 63.5677 36.085 63.5677 36.1032 63.5677C36.2309 63.5221 39.251 62.4365 40.4279 59.1797C41.4681 56.3151 40.7473 52.7754 38.3021 48.6702C32.2894 38.5986 33.5941 34.3017 33.6032 34.2744C33.7766 33.8091 33.5302 33.28 33.0558 33.1066C32.5813 32.9333 32.0613 33.1796 31.8879 33.654C31.8149 33.8456 30.1817 38.635 36.7327 49.6098C38.8769 53.2042 39.5521 56.2056 38.7218 58.532C38.2382 59.873 37.3167 60.7397 36.5868 61.2506C36.1671 58.3495 35.0266 52.7481 32.2255 50.586C31.2675 49.8562 30.2182 49.5734 29.0777 49.7376C26.8606 50.0751 25.9573 49.6463 25.6198 49.3635C25.3004 49.0898 25.2274 48.7432 25.2274 48.4969C25.8387 47.2927 25.8296 46.1979 25.2 45.4954C25.1818 45.4772 25.0449 45.313 24.9355 44.7291C24.8533 44.3277 24.9719 43.8625 25.273 43.3516C25.4829 42.9958 25.7201 42.2477 24.9811 41.226C24.7712 40.934 24.7438 40.7425 24.7256 40.7425L27.4537 38.3888C27.773 38.1242 27.9099 37.6954 27.8095 37.2849C27.6544 36.6372 27.0066 33.2982 29.8077 30.8168C30.0905 30.5614 30.2182 30.1874 30.1635 29.8224C30.1179 29.5579 30.0358 28.6638 30.6379 27.8975C31.2219 27.1586 32.3258 26.7206 33.8952 26.6021C36.0667 26.447 41.3769 26.0547 45.4827 28.5087L43.3932 30.5796L42.2527 31.7109C41.8878 32.0667 41.8878 32.6414 42.2437 33.0063C42.417 33.1796 42.6542 33.2709 42.8914 33.2709C43.1195 33.2709 43.3568 33.1887 43.5301 33.0063L44.6706 31.8842L45.0538 32.2673L43.9133 33.3894C43.5575 33.7452 43.5484 34.3291 43.9042 34.6849C44.0867 34.8674 44.3148 34.9494 44.552 34.9494C44.7892 34.9494 45.0173 34.8674 45.1998 34.6849L46.3312 33.5628L46.7144 33.946L45.5739 35.0772C45.218 35.4239 45.2089 36.0077 45.5647 36.3635C45.7472 36.5459 45.9753 36.6372 46.2126 36.6372C46.4498 36.6372 46.6779 36.5459 46.8604 36.3726L48.0009 35.2414L48.3749 35.6245L47.2344 36.7557C46.8786 37.1024 46.8695 37.6863 47.2253 38.0421C47.4078 38.2246 47.645 38.3158 47.8731 38.3158C48.1104 38.3158 48.3385 38.2246 48.5209 38.0512L49.6614 36.92L50.0355 37.3032L48.895 38.4344C48.5392 38.7902 48.5392 39.3649 48.895 39.7207C49.0684 39.9031 49.3056 39.9944 49.5428 39.9944C49.7709 39.9944 50.0081 39.9031 50.1815 39.7298L51.176 38.7446C51.2764 39.6751 51.3494 40.633 51.3494 41.6638C51.3402 41.746 51.2581 43.7256 52.1796 45.5867C52.7818 46.8091 53.0555 47.9951 52.9917 49.1172ZM54.4424 28.6091C53.6121 29.5122 53.2289 30.7074 53.4114 31.8112L53.6668 33.7088L51.3311 36.0168L46.9881 31.6287L45.9662 30.5978L48.3658 28.2351L50.2545 28.5452C51.3402 28.7185 52.5263 28.3445 53.4296 27.5326L60.7197 20.9915C60.9295 20.8091 61.1576 20.7999 61.2215 20.8547C61.2762 20.9185 61.2671 21.1557 61.0755 21.3565L54.4424 28.6091Z" fill="black"/>
<path d="M45.5375 38.4161C45.136 37.9235 44.2966 37.9144 43.9043 38.4161C42.855 39.7207 41.0941 42.12 41.0941 43.6161C41.0941 45.614 42.7182 47.2379 44.7163 47.2379C46.7145 47.2379 48.3386 45.614 48.3386 43.6161C48.3386 42.12 46.5776 39.7207 45.5375 38.4161ZM44.7163 45.4134C43.7309 45.4134 42.9189 44.6105 42.9189 43.6161C42.9189 43.087 43.6488 41.7824 44.7163 40.3411C45.7838 41.7824 46.5138 43.087 46.5138 43.6161C46.5138 44.6105 45.7108 45.4134 44.7163 45.4134Z" fill="black"/>
</svg>
