<svg width="89" height="89" viewBox="0 0 89 89" fill="none" xmlns="http://www.w3.org/2000/svg">
<circle cx="44.5" cy="44.5" r="44" stroke="black"/>
<path d="M46.7282 47.2365L41.4428 52.5219L39.8019 50.881C39.67 50.7492 39.4912 50.6751 39.3047 50.6751C39.1182 50.6751 38.9394 50.7492 38.8075 50.881C38.6756 51.0129 38.6016 51.1917 38.6016 51.3782C38.6016 51.5647 38.6756 51.7436 38.8075 51.8754L40.9457 54.0136C41.0775 54.1454 41.2563 54.2195 41.4428 54.2195C41.6293 54.2195 41.8081 54.1454 41.94 54.0136L47.7225 48.2309C47.7878 48.1656 47.8396 48.0881 47.8749 48.0028C47.9102 47.9175 47.9284 47.826 47.9284 47.7337C47.9284 47.6413 47.9102 47.5499 47.8749 47.4646C47.8396 47.3793 47.7878 47.3018 47.7225 47.2365C47.6572 47.1712 47.5797 47.1194 47.4944 47.0841C47.409 47.0487 47.3176 47.0305 47.2253 47.0305C47.1329 47.0305 47.0415 47.0487 46.9562 47.0841C46.8709 47.1194 46.7934 47.1712 46.7281 47.2365H46.7282ZM58.9841 40.7724C57.5344 37.7499 55.4671 34.5073 52.8394 31.1349C50.0615 27.5889 47.0153 24.2614 43.7278 21.1819C43.5951 21.0618 43.4216 20.9968 43.2427 21.0001C43.0638 21.0035 42.8929 21.075 42.7648 21.2C39.5915 24.3929 36.636 27.7952 33.9182 31.3837C28.0005 39.2325 25 45.8765 25 51.1308C25 60.9839 33.1896 69 43.2559 69C45.6176 69.0101 47.9578 68.5525 50.1417 67.6535C52.3255 66.7544 54.3097 65.4318 55.9797 63.762C59.2962 60.4526 61.2606 55.9798 61.5111 51.1672C61.6708 48.0985 60.8207 44.6012 58.9843 40.7724H58.9841ZM60.1067 51.0942C59.8743 55.5583 58.0559 59.7036 54.9862 62.7666C53.4465 64.3057 51.6172 65.5248 49.6038 66.3533C47.5905 67.1818 45.4331 67.6034 43.2559 67.5937C33.9649 67.5937 26.4062 60.2085 26.4062 51.1308C26.4062 44.9793 31.0956 37.4654 35.0297 32.2452C37.5759 28.8887 40.3292 25.6944 43.2736 22.6811C46.3109 25.5816 49.137 28.6956 51.7302 31.9991C57.4765 39.3744 60.373 45.9774 60.1067 51.0942ZM49.8363 44.0536C49.7199 43.9371 49.6223 43.4852 49.5577 43.1861C49.4135 42.5183 49.25 41.7615 48.6006 41.3856C47.9587 41.0145 47.2271 41.248 46.5814 41.4541C46.2681 41.5541 45.8392 41.6907 45.671 41.6463C45.5226 41.6065 45.219 41.2712 45.018 41.0493C44.5547 40.5374 44.0293 39.9573 43.265 39.9573C42.5008 39.9573 41.9755 40.5374 41.5121 41.0492C41.3112 41.2712 41.0075 41.6065 40.8591 41.6462C40.6908 41.6912 40.2619 41.5543 39.9486 41.4542C39.3031 41.2481 38.5712 41.0145 37.9295 41.3857C37.2801 41.7615 37.1166 42.5183 36.9723 43.1861C36.9078 43.4852 36.8103 43.9371 36.6937 44.0536C36.5772 44.1701 36.1253 44.2678 35.8263 44.3323C35.1584 44.4765 34.4015 44.64 34.0257 45.2894C33.6544 45.9313 33.8881 46.6629 34.0941 47.3086C34.1943 47.6217 34.3312 48.0508 34.2863 48.2191C34.2466 48.3675 33.9112 48.6711 33.6893 48.8721C33.1774 49.3355 32.5973 49.8607 32.5973 50.625C32.5973 51.3892 33.1774 51.9145 33.6893 52.3779C33.9112 52.5789 34.2466 52.8825 34.2862 53.0309C34.3312 53.1992 34.1942 53.6282 34.0942 53.9414C33.8881 54.5871 33.6544 55.3187 34.0258 55.9605C34.4014 56.6099 35.1583 56.7733 35.8261 56.9177C36.1251 56.9822 36.5771 57.0798 36.6937 57.1964C36.8103 57.3129 36.9078 57.7648 36.9723 58.0639C37.1165 58.7316 37.28 59.4885 37.9295 59.8643C38.5712 60.2356 39.303 60.002 39.9485 59.7959C40.2617 59.6959 40.6908 59.5595 40.8591 59.6039C41.0075 59.6435 41.3112 59.9789 41.5122 60.2008C41.9756 60.7126 42.5008 61.2926 43.265 61.2926C44.0293 61.2926 44.5546 60.7126 45.018 60.2007C45.219 59.9789 45.5225 59.6435 45.6709 59.6039C45.8392 59.5585 46.2682 59.6958 46.5814 59.7958C47.227 60.0021 47.9587 60.2357 48.6005 59.8642C49.25 59.4885 49.4134 58.7316 49.5577 58.0639C49.6222 57.7648 49.7198 57.3129 49.8364 57.1964C49.953 57.0799 50.4048 56.9823 50.7039 56.9177C51.3717 56.7735 52.1285 56.61 52.5044 55.9606C52.8756 55.3187 52.642 54.5871 52.4359 53.9414C52.3358 53.6283 52.1987 53.1992 52.2438 53.0309C52.2835 52.8824 52.6188 52.5788 52.8408 52.3778C53.3527 51.9145 53.9328 51.3892 53.9328 50.625C53.9328 49.8607 53.3526 49.3355 52.8408 48.8721C52.6188 48.6711 52.2835 48.3675 52.2438 48.2191C52.1988 48.0508 52.3357 47.6218 52.4358 47.3086C52.6421 46.6629 52.8757 45.9313 52.5043 45.2895C52.1286 44.64 51.3717 44.4767 50.7039 44.3324C50.4048 44.2679 49.953 44.1702 49.8364 44.0536H49.8363ZM51.2855 45.9906C51.3383 46.1228 51.1809 46.616 51.0962 46.8809C50.9265 47.4127 50.7339 48.0157 50.8853 48.5822C51.0321 49.1314 51.4717 49.5295 51.897 49.9145C52.0853 50.0851 52.5265 50.4845 52.5265 50.6251C52.5265 50.7654 52.0854 51.1649 51.897 51.3354C51.4717 51.7205 51.0321 52.1185 50.8852 52.6678C50.7339 53.2342 50.9264 53.8372 51.0962 54.3692C51.1809 54.6341 51.3383 55.1273 51.2879 55.2551C51.204 55.371 50.6855 55.4829 50.4071 55.5431C49.839 55.6658 49.2513 55.7926 48.842 56.2019C48.4326 56.6113 48.3058 57.1988 48.1831 57.7671C48.1229 58.0455 48.011 58.5639 47.8995 58.6455C47.7673 58.6985 47.2741 58.5409 47.0091 58.4562C46.4774 58.2864 45.8749 58.094 45.3078 58.2453C44.7587 58.3921 44.3606 58.8317 43.9757 59.2568C43.805 59.4453 43.4056 59.8864 43.265 59.8864C43.1245 59.8864 42.7251 59.4453 42.5546 59.2568C42.1696 58.8317 41.7715 58.3921 41.2222 58.2453C41.0792 58.2079 40.9319 58.1895 40.784 58.1904C40.3532 58.1904 39.9173 58.3296 39.5208 58.4561C39.2559 58.5409 38.7628 58.6986 38.6349 58.6477C38.519 58.5639 38.4071 58.0455 38.347 57.7671C38.2242 57.1989 38.0974 56.6113 37.6881 56.202C37.2787 55.7926 36.6911 55.6657 36.123 55.543C35.8445 55.4828 35.3261 55.3709 35.2445 55.2595C35.1917 55.1272 35.3492 54.6341 35.4339 54.3692C35.6036 53.8372 35.7962 53.2342 35.6448 52.6678C35.4979 52.1186 35.0583 51.7205 34.6332 51.3356C34.4447 51.165 34.0036 50.7656 34.0036 50.625C34.0036 50.4844 34.4447 50.085 34.6332 49.9145C35.0583 49.5295 35.4979 49.1314 35.6447 48.5822C35.7962 48.0157 35.6037 47.4127 35.4338 46.8809C35.3492 46.6159 35.1917 46.1226 35.2422 45.9948C35.3261 45.879 35.8445 45.767 36.123 45.707C36.6912 45.5841 37.2787 45.4574 37.6881 45.0481C38.0974 44.6388 38.2244 44.0511 38.347 43.4829C38.4072 43.2045 38.519 42.686 38.6306 42.6045C38.7628 42.5518 39.2559 42.7092 39.5208 42.7938C40.0528 42.9635 40.6558 43.1563 41.2222 43.0047C41.7715 42.8579 42.1696 42.4182 42.5545 41.993C42.7251 41.8047 43.1245 41.3635 43.265 41.3635C43.4056 41.3635 43.805 41.8047 43.9757 41.9931C44.3606 42.4183 44.7587 42.8579 45.3078 43.0047C45.8743 43.156 46.4773 42.9636 47.0091 42.7938C47.2741 42.7091 47.767 42.5517 47.8953 42.6021C48.011 42.686 48.1231 43.2045 48.1831 43.4829C48.3059 44.0511 48.4326 44.6387 48.8419 45.048C49.2512 45.4574 49.8389 45.5842 50.4071 45.7071C50.6855 45.767 51.204 45.879 51.2855 45.9906Z" fill="#272A33"/>
</svg>
