<svg width="62" height="62" viewBox="0 0 62 62" fill="none" xmlns="http://www.w3.org/2000/svg">
<path d="M52.9582 29.0417C51.9333 29.0417 51.2499 28.3583 51.2499 27.3333V23.9167C51.2499 18.45 49.1999 13.325 45.2708 9.39583C41.3416 5.46667 36.2166 3.41667 30.7499 3.41667C19.4749 3.41667 10.2499 12.6417 10.2499 23.9167V27.3333C10.2499 28.3583 9.56659 29.0417 8.54159 29.0417C7.51659 29.0417 6.83325 28.3583 6.83325 27.3333V23.9167C6.83325 10.7625 17.5958 0 30.7499 0C37.0708 0 43.2208 2.5625 47.6624 7.00417C52.1041 11.4458 54.6666 17.5958 54.6666 23.9167V27.3333C54.6666 28.3583 53.9832 29.0417 52.9582 29.0417ZM33.3124 52.9583H28.1874C25.7958 52.9583 23.9166 54.8375 23.9166 57.2292C23.9166 59.6208 25.7958 61.5 28.1874 61.5H33.3124C35.7041 61.5 37.5833 59.6208 37.5833 57.2292C37.5833 54.8375 35.7041 52.9583 33.3124 52.9583ZM33.3124 58.0833H28.1874C27.6749 58.0833 27.3333 57.7417 27.3333 57.2292C27.3333 56.7167 27.6749 56.375 28.1874 56.375H33.3124C33.8249 56.375 34.1666 56.7167 34.1666 57.2292C34.1666 57.7417 33.8249 58.0833 33.3124 58.0833Z" fill="#BF7D2C"/>
<path d="M40.9999 59.7916H35.8749C34.8499 59.7916 34.1666 59.1083 34.1666 58.0833C34.1666 57.0583 34.8499 56.3749 35.8749 56.3749H40.9999C46.6374 56.3749 51.2499 51.7624 51.2499 46.1249C51.2499 45.0999 51.9333 44.4166 52.9583 44.4166C53.9833 44.4166 54.6666 45.0999 54.6666 46.1249C54.6666 53.6416 48.5166 59.7916 40.9999 59.7916ZM30.7499 49.5416C27.5041 49.5416 24.4291 48.0041 22.5499 45.4416C22.0374 44.7583 22.2083 43.5624 22.8916 43.0499C23.5749 42.5374 24.7708 42.7083 25.2833 43.3916C26.4791 45.0999 28.5291 46.1249 30.7499 46.1249C32.9708 46.1249 35.0208 45.0999 36.2166 43.3916C36.7291 42.7083 37.7541 42.5374 38.6083 43.0499C39.2916 43.5624 39.4624 44.5874 38.9499 45.4416C37.0708 48.0041 33.9958 49.5416 30.7499 49.5416Z" fill="#BF7D2C"/>
<path d="M11.9583 25.625H6.83333C3.075 25.625 0 28.7 0 32.4583V41C0 44.7583 3.075 47.8333 6.83333 47.8333H11.9583C12.8125 47.8333 13.6667 46.9792 13.6667 46.125V27.3333C13.6667 26.4792 12.8125 25.625 11.9583 25.625ZM10.25 44.4167H6.83333C4.95417 44.4167 3.41667 42.8792 3.41667 41V32.4583C3.41667 30.5792 4.95417 29.0417 6.83333 29.0417H10.25V44.4167ZM54.6667 25.625H49.5417C48.6875 25.625 47.8333 26.4792 47.8333 27.3333V46.125C47.8333 46.9792 48.6875 47.8333 49.5417 47.8333H54.6667C58.425 47.8333 61.5 44.7583 61.5 41V32.4583C61.5 28.7 58.425 25.625 54.6667 25.625ZM58.0833 41C58.0833 42.8792 56.5458 44.4167 54.6667 44.4167H51.25V29.0417H54.6667C56.5458 29.0417 58.0833 30.5792 58.0833 32.4583V41Z" fill="#BF7D2C"/>
</svg>
